<?xml version="1.0" encoding="iso-8859-1"?>
<!-- Generator: Adobe Illustrator 23.0.1, SVG Export Plug-In . SVG Version: 6.00 Build 0)  -->
<svg version="1.1" xmlns="http://www.w3.org/2000/svg" xmlns:xlink="http://www.w3.org/1999/xlink" x="0px" y="0px"
	 viewBox="0 0 70 70" style="enable-background:new 0 0 70 70;" xml:space="preserve">
<g id="&#x56FE;&#x5C42;_2" style="display:none;">
	<rect style="display:inline;fill:#E63B16;" width="70" height="70"/>
</g>
<g id="&#x56FE;&#x5C42;_1">
	<path style="fill:#2D2D2D;" d="M51.936,51.104H21.213c-4.882,0-8.84-3.958-8.84-8.84V11.541c0-4.882,3.958-8.84,8.84-8.84h30.723
		c4.882,0,8.84,3.958,8.84,8.84v30.723C60.776,47.146,56.818,51.104,51.936,51.104z"/>
	<polygon style="fill:#2D2D2D;" points="12.373,25.244 12.373,69.299 45.419,25.244 	"/>
	<g>
		<g>
			<circle style="fill:#FFFFFF;" cx="35.696" cy="20.285" r="10.289"/>
			<circle style="fill:#2D2D2D;" cx="35.696" cy="20.285" r="7.275"/>
		</g>
		<circle style="fill:#2D2D2D;" cx="42.435" cy="28.151" r="2.053"/>
	</g>
	<g>
		<circle style="fill:#FFFFFF;" cx="43.784" cy="29.351" r="1.566"/>
		<circle style="fill:#FFFFFF;" cx="45.442" cy="31.009" r="1.566"/>
		
			<rect x="43.152" y="29.123" transform="matrix(0.7071 -0.7071 0.7071 0.7071 -8.3176 40.4909)" style="fill:#FFFFFF;" width="3.132" height="2.325"/>
	</g>
	<g>
		<path style="fill:#FFFFFF;" d="M19.704,35.688h1.248l0.22,0.43h0.073c0.411-0.382,0.949-0.573,1.615-0.573
			c0.783,0,1.395,0.296,1.835,0.887c0.441,0.592,0.661,1.537,0.661,2.835c0,1.308-0.228,2.255-0.683,2.842s-1.108,0.881-1.96,0.881
			c-0.49,0-0.906-0.12-1.248-0.358v3.078h-1.762V35.688z M23.242,41.379c0.235-0.405,0.353-1.109,0.353-2.111
			s-0.117-1.706-0.353-2.111c-0.235-0.406-0.558-0.609-0.969-0.609c-0.167,0-0.306,0.024-0.418,0.072
			c-0.113,0.048-0.242,0.119-0.389,0.215v4.867c0.078,0.077,0.191,0.144,0.338,0.2c0.146,0.058,0.303,0.086,0.47,0.086
			C22.684,41.987,23.007,41.785,23.242,41.379z"/>
		<path style="fill:#FFFFFF;" d="M27.309,35.688h1.248l0.22,0.43h0.073c0.411-0.382,0.974-0.573,1.688-0.573
			c0.705,0,1.26,0.167,1.667,0.5c0.406,0.335,0.609,0.931,0.609,1.79v5.011h-1.762v-5.011c0-0.458-0.11-0.787-0.33-0.988
			c-0.22-0.2-0.502-0.301-0.844-0.301c-0.167,0-0.323,0.029-0.47,0.086c-0.147,0.058-0.26,0.125-0.338,0.201v6.013h-1.762V35.688z"
			/>
		<path style="fill:#FFFFFF;" d="M36.236,45.768c-0.344-0.058-0.637-0.124-0.881-0.201v-0.716h1.615c0.566,0,0.99-0.169,1.27-0.508
			s0.418-0.909,0.418-1.711c-0.322,0.238-0.738,0.358-1.248,0.358c-0.852,0-1.504-0.294-1.959-0.881
			c-0.456-0.587-0.684-1.534-0.684-2.842c0-1.336,0.257-2.291,0.771-2.863c0.514-0.572,1.332-0.859,2.459-0.859
			c0.498,0,0.932,0.033,1.299,0.1s0.742,0.177,1.123,0.329v6.3c0,1.269-0.254,2.183-0.764,2.741
			c-0.508,0.559-1.307,0.838-2.393,0.838C36.92,45.854,36.578,45.824,36.236,45.768z M38.328,41.901
			c0.143-0.057,0.252-0.123,0.33-0.2v-5.154h-0.66c-0.48,0-0.844,0.201-1.094,0.602c-0.25,0.401-0.375,1.107-0.375,2.119
			c0,1.002,0.117,1.706,0.352,2.111c0.236,0.406,0.559,0.608,0.971,0.608C38.027,41.987,38.186,41.959,38.328,41.901z"/>
		<path style="fill:#FFFFFF;" d="M43.255,42.904c-0.343-0.058-0.637-0.124-0.882-0.201v-0.716h1.615
			c0.567,0,0.991-0.078,1.271-0.236c0.278-0.157,0.418-0.412,0.418-0.766c0-0.296-0.112-0.524-0.338-0.688
			c-0.225-0.162-0.582-0.348-1.071-0.558c-0.431-0.172-0.783-0.337-1.058-0.494c-0.273-0.157-0.506-0.375-0.697-0.651
			c-0.19-0.276-0.286-0.625-0.286-1.045c0-0.754,0.232-1.276,0.697-1.568c0.465-0.291,1.187-0.436,2.166-0.436
			c0.343,0,0.685,0.028,1.027,0.085c0.343,0.058,0.637,0.125,0.881,0.201v0.715h-1.614c-0.421,0-0.759,0.074-1.014,0.223
			c-0.255,0.147-0.382,0.36-0.382,0.637c0,0.296,0.112,0.525,0.338,0.688s0.582,0.349,1.072,0.559
			c0.431,0.171,0.782,0.336,1.057,0.493c0.274,0.158,0.507,0.375,0.697,0.651c0.191,0.277,0.287,0.626,0.287,1.046
			c0,0.563-0.113,0.999-0.338,1.31c-0.226,0.311-0.565,0.527-1.021,0.651s-1.055,0.187-1.799,0.187
			C43.939,42.99,43.597,42.961,43.255,42.904z"/>
		<path style="fill:#FFFFFF;" d="M49.465,42.904c-0.343-0.058-0.637-0.124-0.882-0.201v-0.716h1.615
			c0.567,0,0.991-0.078,1.271-0.236c0.278-0.157,0.418-0.412,0.418-0.766c0-0.296-0.112-0.524-0.338-0.688
			c-0.225-0.162-0.582-0.348-1.071-0.558c-0.431-0.172-0.783-0.337-1.058-0.494c-0.273-0.157-0.506-0.375-0.697-0.651
			c-0.19-0.276-0.286-0.625-0.286-1.045c0-0.754,0.232-1.276,0.697-1.568c0.465-0.291,1.187-0.436,2.166-0.436
			c0.343,0,0.685,0.028,1.027,0.085c0.343,0.058,0.637,0.125,0.881,0.201v0.715h-1.614c-0.421,0-0.759,0.074-1.014,0.223
			c-0.255,0.147-0.382,0.36-0.382,0.637c0,0.296,0.112,0.525,0.338,0.688s0.582,0.349,1.072,0.559
			c0.431,0.171,0.782,0.336,1.057,0.493c0.274,0.158,0.507,0.375,0.697,0.651c0.191,0.277,0.287,0.626,0.287,1.046
			c0,0.563-0.113,0.999-0.338,1.31c-0.226,0.311-0.565,0.527-1.021,0.651s-1.055,0.187-1.799,0.187
			C50.149,42.99,49.807,42.961,49.465,42.904z"/>
	</g>
</g>
</svg>
